<?xml version="1.0" encoding="utf-8"?>
<!-- Generator: Adobe Illustrator 19.2.0, SVG Export Plug-In . SVG Version: 6.00 Build 0)  -->
<svg version="1.1" id="Ebene_1" xmlns="http://www.w3.org/2000/svg" xmlns:xlink="http://www.w3.org/1999/xlink" x="0px" y="0px"
	 viewBox="0 0 150 150" style="enable-background:new 0 0 150 150;" xml:space="preserve">
<style type="text/css">
	.st0{fill:#336699;stroke:#336699;stroke-miterlimit:10;}
</style>
<g transform="translate(0.000000,150.000000) scale(0.100000,-0.100000)">
	<path class="st0" d="M605,1221c-94-34-159-73-218-133c-67-68-123-174-133-251c-7-48-9-51-67-86C115,708,34,636,14,598
		c-61-118,92-190,341-159c110,14,236,35,290,49c22,6,72,18,110,28c168,41,494,177,609,254c106,72,157,162,122,215
		c-32,49-89,67-221,70l-121,3l-48,47c-51,49-117,86-205,116C819,1246,675,1246,605,1221z M1393,968c50-19,33-57-54-122
		c-68-51-89-57-89-23c-1,19-23,90-44,139c-6,12-2,18,16,21C1255,989,1360,980,1393,968z M254,648c4-23,16-62,27-87
		c10-24,17-47,13-50c-10-10-156-3-186,10c-50,21-35,57,53,123c33,25,67,46,74,46S250,672,254,648z"/>
	<path class="st0" d="M1165,629c-165-78-391-149-620-194c-38-8-83-14-100-15c-16,0-37-5-45-10c-34-21,113-115,227-145
		c260-68,543,96,613,354c6,24,10,44,8,46C1246,666,1209,650,1165,629z"/>
</g>
</svg>
