<?xml version="1.0" encoding="utf-8"?>
<!-- Generator: Adobe Illustrator 19.2.0, SVG Export Plug-In . SVG Version: 6.00 Build 0)  -->
<svg version="1.1" id="Ebene_1" xmlns="http://www.w3.org/2000/svg" xmlns:xlink="http://www.w3.org/1999/xlink" x="0px" y="0px"
	 viewBox="0 0 994 146" style="enable-background:new 0 0 994 146;" xml:space="preserve">
<style type="text/css">
	.st0{fill:#336699;}
	.st1{fill:none;}
	.st2{font-family:'OpenSans';}
	.st3{font-size:150px;}
</style>
<g transform="translate(0.000000,146.000000) scale(0.100000,-0.100000)">
	<path class="st0" d="M940,1445c-157-33-255-88-375-209c-124-125-174-227-211-432c-2-14-30-37-81-67C9,583-73,411,73,321
		c123-76,464-64,856,30c571,136,1101,390,1211,582c35,61,38,108,11,153c-45,74-162,107-362,103l-127-3l-80,75
		c-87,82-201,147-307,175C1191,1458,1020,1463,940,1445z M1977,1069c99-21,106-55,26-134c-43-42-171-135-187-135c-3,0-6,12-6,26
		c0,38-27,137-55,200l-24,54h99C1884,1080,1951,1075,1977,1069z M360,634c0-38,27-137,55-200l24-54h-99c-107,0-184,13-214,35
		c-28,21-14,56,43,111c46,45,167,133,184,134C357,660,360,648,360,634z"/>
	<path class="st0" d="M1676,554C1364,411,893,272,622,244c-34-4-62-10-62-15c0-19,121-112,194-148C872,22,943,6,1085,6
		c143,0,213,16,335,76c106,53,247,187,303,288c46,84,98,241,80,239C1798,609,1742,584,1676,554z"/>
</g>
<rect x="212" y="14" class="st1" width="779" height="132"/>
<text transform="matrix(1 0 0 1 212 127.999)" class="st0 st2 st3">rbitronDev</text>
</svg>
